<svg xmlns="http://www.w3.org/2000/svg" width="100" height="103" viewBox="0 0 100 103">
  <metadata><?xpacket begin="﻿" id="W5M0MpCehiHzreSzNTczkc9d"?>
<x:xmpmeta xmlns:x="adobe:ns:meta/" x:xmptk="Adobe XMP Core 5.6-c138 79.159824, 2016/09/14-01:09:01        ">
   <rdf:RDF xmlns:rdf="http://www.w3.org/1999/02/22-rdf-syntax-ns#">
      <rdf:Description rdf:about=""/>
   </rdf:RDF>
</x:xmpmeta>
                                                                                                    
                                                                                                    
                                                                                                    
                                                                                                    
                                                                                                    
                                                                                                    
                                                                                                    
                                                                                                    
                                                                                                    
                                                                                                    
                                                                                                    
                                                                                                    
                                                                                                    
                                                                                                    
                                                                                                    
                                                                                                    
                                                                                                    
                                                                                                    
                                                                                                    
                                                                                                    
                           
<?xpacket end="w"?></metadata>
<defs>
    <style>
      .cls-1 {
        fill: #fff;
        fill-rule: evenodd;
      }
    </style>
  </defs>
  <path class="cls-1" d="M847,3293.02a12.8,12.8,0,0,0,2.99-8.55,13.18,13.18,0,0,0-2.8-7.41c1.4-3.49,1.936-8.98-2.732-13.24-3.421-3.13-9.229-4.53-17.274-4.14a67.864,67.864,0,0,0-10.584,1.36h-0.022c-1.075.19-2.215,0.43-3.377,0.69-0.086-1.38.151-4.81,2.689-12.52,3.012-9.17,2.84-16.19-.559-20.89-3.571-4.93-9.272-5.32-10.95-5.32a5.4,5.4,0,0,0-4.152,1.9c-2.388,2.77-2.108,7.9-1.807,10.27-2.839,7.62-10.8,26.32-17.532,31.51a3.16,3.16,0,0,0-.344.3,23.044,23.044,0,0,0-4.216,6.34,8.866,8.866,0,0,0-4.26-1.08H758.949A8.963,8.963,0,0,0,750,3281.2v35a8.964,8.964,0,0,0,8.949,8.96h13.122a8.881,8.881,0,0,0,5.163-1.64l5.055,0.61a218.051,218.051,0,0,0,28.676,1.57c2.56,0.19,4.969.3,7.206,0.3a48.442,48.442,0,0,0,10-.9c6.583-1.4,11.079-4.2,13.359-8.32a13.191,13.191,0,0,0,1.463-8.25,13.746,13.746,0,0,0,4.883-11.18A14.6,14.6,0,0,0,847,3293.02Zm-88.048,26.32a3.145,3.145,0,0,1-3.141-3.14v-35.02a3.148,3.148,0,0,1,3.141-3.15h13.122a3.146,3.146,0,0,1,3.141,3.15v35a3.146,3.146,0,0,1-3.141,3.14H758.949v0.02Zm82.541-28.84a2.9,2.9,0,0,0-.387,3.51,9.042,9.042,0,0,1,.99,3.6c0.15,2.82-1.2,5.32-4.045,7.45a2.942,2.942,0,0,0-.989,3.32,7.623,7.623,0,0,1-.581,5.56c-1.441,2.58-4.647,4.44-9.508,5.47-3.894.84-9.186,0.99-15.683,0.47h-0.3a210.635,210.635,0,0,1-27.965-1.53H783l-2.172-.25a9.207,9.207,0,0,0,.193-1.9v-35.02a9.068,9.068,0,0,0-.409-2.67,17.948,17.948,0,0,1,4-7.39c9.659-7.67,19.1-33.54,19.511-34.66a2.723,2.723,0,0,0,.129-1.44c-0.366-2.41-.237-5.36.28-6.25a7.722,7.722,0,0,1,6.066,2.91c2.194,3.04,2.108,8.47-.258,15.66-3.614,10.96-3.915,16.73-1.054,19.28a4.7,4.7,0,0,0,4.689.84c1.313-.3,2.56-0.56,3.744-0.76,0.086-.02.193-0.04,0.279-0.06,6.6-1.44,18.436-2.33,22.545,1.42,3.485,3.19,1.011,7.41.731,7.86a2.886,2.886,0,0,0,.516,3.75,8.138,8.138,0,0,1,2.388,5.02C844.265,3286.61,843.362,3288.57,841.49,3290.5Z" transform="translate(-750 -3223)"/>
</svg>
