<svg xmlns="http://www.w3.org/2000/svg" xmlns:xlink="http://www.w3.org/1999/xlink" width="83" height="82" viewBox="0 0 83 82">
  <metadata><?xpacket begin="﻿" id="W5M0MpCehiHzreSzNTczkc9d"?>
<x:xmpmeta xmlns:x="adobe:ns:meta/" x:xmptk="Adobe XMP Core 5.6-c138 79.159824, 2016/09/14-01:09:01        ">
   <rdf:RDF xmlns:rdf="http://www.w3.org/1999/02/22-rdf-syntax-ns#">
      <rdf:Description rdf:about=""/>
   </rdf:RDF>
</x:xmpmeta>
                                                                                                    
                                                                                                    
                                                                                                    
                                                                                                    
                                                                                                    
                                                                                                    
                                                                                                    
                                                                                                    
                                                                                                    
                                                                                                    
                                                                                                    
                                                                                                    
                                                                                                    
                                                                                                    
                                                                                                    
                                                                                                    
                                                                                                    
                                                                                                    
                                                                                                    
                                                                                                    
                           
<?xpacket end="w"?></metadata>
<defs>
    <style>
      .cls-1 {
        fill: #fff;
        fill-rule: evenodd;
        filter: url(#filter);
      }
    </style>
    <filter id="filter" x="750" y="1130" width="83" height="82" filterUnits="userSpaceOnUse">
      <feFlood result="flood" flood-color="#ffffff"/>
      <feComposite result="composite" operator="in" in2="SourceGraphic"/>
      <feBlend result="blend" in2="SourceGraphic"/>
    </filter>
  </defs>
  <path id="Forma_1" data-name="Forma 1" class="cls-1" d="M831.684,1130.1H756.721a1.565,1.565,0,0,0-.535-0.1,1.426,1.426,0,0,0-1.426,1.42v4.77h-1.685a3.082,3.082,0,0,0-3.078,3.08v10.93a3.082,3.082,0,0,0,3.078,3.08h1.685v31.75h-1.685a3.082,3.082,0,0,0-3.078,3.08v10.93a3.082,3.082,0,0,0,3.078,3.08h1.685v1.32a1.355,1.355,0,0,0,.107.53v2.92a1.31,1.31,0,0,0,1.319,1.31h75.5a1.311,1.311,0,0,0,1.319-1.31v-75.47A1.322,1.322,0,0,0,831.684,1130.1Zm-78.609,20.54a0.442,0.442,0,0,1-.439-0.44v-10.93a0.442,0.442,0,0,1,.439-0.44h1.685v11.81h-1.685Zm0,48.84a0.442,0.442,0,0,1-.439-0.44v-10.93a0.442,0.442,0,0,1,.439-0.44h1.685v11.81h-1.685Zm77.29,6.09h-72.86v-1.6a1.355,1.355,0,0,0,.106-0.53v-70.7h72.755v72.83h0Zm-48.512-46.75a15.783,15.783,0,0,0,0,20.49l-5.171,5.16a1.432,1.432,0,0,0,0,2.02,1.418,1.418,0,0,0,2.015,0l5.183-5.18a15.835,15.835,0,0,0,20.007.08l5.285,5.28a1.423,1.423,0,0,0,2.015-2.01l-5.257-5.26a15.774,15.774,0,0,0,.173-20.48l5.085-5.09a1.423,1.423,0,1,0-2.016-2.01l-5.084,5.08a15.811,15.811,0,0,0-20.208-.08l-5.182-5.18a1.423,1.423,0,1,0-2.015,2.01Zm12.082,23.24a12.93,12.93,0,0,1-8.022-2.78l4.437-4.44a6.758,6.758,0,0,0,7.058.07l4.445,4.45A12.938,12.938,0,0,1,793.935,1182.06Zm-3.963-13a3.938,3.938,0,0,1,.408-1.72l1.721,1.72-1.721,1.72A3.9,3.9,0,0,1,789.972,1169.06Zm4.054-2.1-1.567-1.57a4.017,4.017,0,0,1,1.475-.29,3.9,3.9,0,0,1,1.6.35Zm1.245,5.82a3.945,3.945,0,0,1-1.336.24,3.826,3.826,0,0,1-1.475-.29l1.384-1.38Zm0.5-3.54,1.784-1.78a3.846,3.846,0,0,1-.128,3.44Zm11.175-.18a12.949,12.949,0,0,1-3.027,8.33l-4.414-4.41a6.768,6.768,0,0,0,.147-7.61l4.428-4.43A12.939,12.939,0,0,1,806.943,1169.06Zm-13.008-13a12.937,12.937,0,0,1,8.126,2.87l-4.428,4.42a6.762,6.762,0,0,0-7.284-.07l-4.437-4.43A12.941,12.941,0,0,1,793.935,1156.06Zm-5.645,9.19a6.793,6.793,0,0,0,0,7.62l-4.418,4.42a12.962,12.962,0,0,1,0-16.45Zm-28.065,44.34h16.04V1212h-16.04v-2.41Zm52.764,0h16.04V1212h-16.04v-2.41Z" transform="translate(-750 -1130)"/>
</svg>
