<svg xmlns="http://www.w3.org/2000/svg" width="100" height="94" viewBox="0 0 100 94">
  <metadata><?xpacket begin="﻿" id="W5M0MpCehiHzreSzNTczkc9d"?>
<x:xmpmeta xmlns:x="adobe:ns:meta/" x:xmptk="Adobe XMP Core 5.6-c138 79.159824, 2016/09/14-01:09:01        ">
   <rdf:RDF xmlns:rdf="http://www.w3.org/1999/02/22-rdf-syntax-ns#">
      <rdf:Description rdf:about=""/>
   </rdf:RDF>
</x:xmpmeta>
                                                                                                    
                                                                                                    
                                                                                                    
                                                                                                    
                                                                                                    
                                                                                                    
                                                                                                    
                                                                                                    
                                                                                                    
                                                                                                    
                                                                                                    
                                                                                                    
                                                                                                    
                                                                                                    
                                                                                                    
                                                                                                    
                                                                                                    
                                                                                                    
                                                                                                    
                                                                                                    
                           
<?xpacket end="w"?></metadata>
<defs>
    <style>
      .cls-1 {
        fill: #fff;
        fill-rule: evenodd;
      }
    </style>
  </defs>
  <path class="cls-1" d="M1450.74,3238h-57.46a10.424,10.424,0,0,0-10.43,10.4v47.46l-6.59-6.57a2.493,2.493,0,0,0-3.53,3.52l10.88,10.85a2.523,2.523,0,0,0,3.55,0l10.87-10.85a2.493,2.493,0,0,0-3.53-3.52l-6.61,6.59V3248.4a5.418,5.418,0,0,1,5.43-5.41h57.44a5.409,5.409,0,0,1,5.42,5.41v6.93a2.51,2.51,0,0,0,5.02,0v-6.93A10.515,10.515,0,0,0,1450.74,3238Zm6.14,28.36L1446,3277.21a2.475,2.475,0,0,0,0,3.52,2.5,2.5,0,0,0,3.55,0l6.61-6.59v47.46a5.409,5.409,0,0,1-5.42,5.41h-57.46a5.418,5.418,0,0,1-5.43-5.41v-6.93a2.51,2.51,0,0,0-5.02,0v6.93a10.424,10.424,0,0,0,10.43,10.4h57.44a10.416,10.416,0,0,0,10.42-10.4v-47.46l6.61,6.59a2.493,2.493,0,1,0,3.53-3.52l-10.87-10.85A2.537,2.537,0,0,0,1456.88,3266.36Zm-34.87-3.42a2.5,2.5,0,0,0-2.51,2.5v3.83h-0.33a9.111,9.111,0,0,0,0,18.2h5.63a4.141,4.141,0,0,1,0,8.23h-10.12a2.505,2.505,0,1,0,0,5.01h4.82v3.89a2.51,2.51,0,0,0,5.02,0v-3.91h0.43a9.114,9.114,0,0,0-.13-18.2h-5.63a4.142,4.142,0,0,1,0-8.23h9.94a2.505,2.505,0,1,0,0-5.01h-4.61v-3.83A2.512,2.512,0,0,0,1422.01,3262.94Z" transform="translate(-1372 -3238)"/>
</svg>
